<svg width="56" height="44" viewBox="0 0 56 44" fill="none" xmlns="http://www.w3.org/2000/svg">
<path d="M54 0H2C0.89375 0 0 0.89375 0 2V42C0 43.1063 0.89375 44 2 44H54C55.1063 44 56 43.1063 56 42V2C56 0.89375 55.1063 0 54 0ZM48.95 6.80625L29.2313 22.15C28.7438 22.5313 28.0625 22.5313 27.575 22.15L7.85 6.80625C7.77564 6.74887 7.72111 6.66965 7.69403 6.57972C7.66696 6.48978 7.6687 6.39363 7.69902 6.30473C7.72934 6.21583 7.78672 6.13865 7.86311 6.08401C7.9395 6.02936 8.03108 5.99999 8.125 6H48.675C48.7689 5.99999 48.8605 6.02936 48.9369 6.08401C49.0133 6.13865 49.0707 6.21583 49.101 6.30473C49.1313 6.39363 49.133 6.48978 49.106 6.57972C49.0789 6.66965 49.0244 6.74887 48.95 6.80625Z" fill="#E80E0F"/>
</svg>
