<svg width="172" height="16" viewBox="0 0 172 16" fill="none" xmlns="http://www.w3.org/2000/svg">
<line y1="-0.5" x2="18.0278" y2="-0.5" transform="matrix(-0.5547 0.83205 0.83205 0.5547 11 1)" stroke="#D4D4D8"/>
<line y1="-0.5" x2="18.0278" y2="-0.5" transform="matrix(-0.5547 0.83205 0.83205 0.5547 46 1)" stroke="#D4D4D8"/>
<line y1="-0.5" x2="18.0278" y2="-0.5" transform="matrix(-0.5547 0.83205 0.83205 0.5547 81 1)" stroke="#D4D4D8"/>
<line y1="-0.5" x2="18.0278" y2="-0.5" transform="matrix(-0.5547 0.83205 0.83205 0.5547 116 1)" stroke="#D4D4D8"/>
<line y1="-0.5" x2="18.0278" y2="-0.5" transform="matrix(-0.5547 0.83205 0.83205 0.5547 151 1)" stroke="#D4D4D8"/>
<line y1="-0.5" x2="18.0278" y2="-0.5" transform="matrix(-0.5547 0.83205 0.83205 0.5547 18 1)" stroke="#D4D4D8"/>
<line y1="-0.5" x2="18.0278" y2="-0.5" transform="matrix(-0.5547 0.83205 0.83205 0.5547 53 1)" stroke="#D4D4D8"/>
<line y1="-0.5" x2="18.0278" y2="-0.5" transform="matrix(-0.5547 0.83205 0.83205 0.5547 88 1)" stroke="#D4D4D8"/>
<line y1="-0.5" x2="18.0278" y2="-0.5" transform="matrix(-0.5547 0.83205 0.83205 0.5547 123 1)" stroke="#D4D4D8"/>
<line y1="-0.5" x2="18.0278" y2="-0.5" transform="matrix(-0.5547 0.83205 0.83205 0.5547 158 1)" stroke="#D4D4D8"/>
<line y1="-0.5" x2="18.0278" y2="-0.5" transform="matrix(-0.5547 0.83205 0.83205 0.5547 25 1)" stroke="#D4D4D8"/>
<line y1="-0.5" x2="18.0278" y2="-0.5" transform="matrix(-0.5547 0.83205 0.83205 0.5547 60 1)" stroke="#D4D4D8"/>
<line y1="-0.5" x2="18.0278" y2="-0.5" transform="matrix(-0.5547 0.83205 0.83205 0.5547 95 1)" stroke="#D4D4D8"/>
<line y1="-0.5" x2="18.0278" y2="-0.5" transform="matrix(-0.5547 0.83205 0.83205 0.5547 130 1)" stroke="#D4D4D8"/>
<line y1="-0.5" x2="18.0278" y2="-0.5" transform="matrix(-0.5547 0.83205 0.83205 0.5547 165 1)" stroke="#D4D4D8"/>
<line y1="-0.5" x2="18.0278" y2="-0.5" transform="matrix(-0.5547 0.83205 0.83205 0.5547 32 1)" stroke="#D4D4D8"/>
<line y1="-0.5" x2="18.0278" y2="-0.5" transform="matrix(-0.5547 0.83205 0.83205 0.5547 67 1)" stroke="#D4D4D8"/>
<line y1="-0.5" x2="18.0278" y2="-0.5" transform="matrix(-0.5547 0.83205 0.83205 0.5547 102 1)" stroke="#D4D4D8"/>
<line y1="-0.5" x2="18.0278" y2="-0.5" transform="matrix(-0.5547 0.83205 0.83205 0.5547 137 1)" stroke="#D4D4D8"/>
<line y1="-0.5" x2="18.0278" y2="-0.5" transform="matrix(-0.5547 0.83205 0.83205 0.5547 172 1)" stroke="#D4D4D8"/>
<line y1="-0.5" x2="18.0278" y2="-0.5" transform="matrix(-0.5547 0.83205 0.83205 0.5547 39 1)" stroke="#D4D4D8"/>
<line y1="-0.5" x2="18.0278" y2="-0.5" transform="matrix(-0.5547 0.83205 0.83205 0.5547 74 1)" stroke="#D4D4D8"/>
<line y1="-0.5" x2="18.0278" y2="-0.5" transform="matrix(-0.5547 0.83205 0.83205 0.5547 109 1)" stroke="#D4D4D8"/>
<line y1="-0.5" x2="18.0278" y2="-0.5" transform="matrix(-0.5547 0.83205 0.83205 0.5547 144 1)" stroke="#D4D4D8"/>
</svg>
